HIERARCHY
ROOT Junyuan_V1:Solving:Hips
{
	OFFSET 0.000000 0.000000 0.000000
	CHANNELS 6 Xposition Yposition Zposition Xrotation Yrotation Zrotation
	JOINT Junyuan_V1:Solving:Spine
	{
		OFFSET 0.000000 -11.384845 2.506330
		CHANNELS 6 Xposition Yposition Zposition Xrotation Yrotation Zrotation
		JOINT Junyuan_V1:Solving:Spine1
		{
			OFFSET 0.000000 -9.451137 1.666492
			CHANNELS 6 Xposition Yposition Zposition Xrotation Yrotation Zrotation
			JOINT Junyuan_V1:Solving:Spine2
			{
				OFFSET 0.000000 -9.560415 0.836431
				CHANNELS 6 Xposition Yposition Zposition Xrotation Yrotation Zrotation
				JOINT Junyuan_V1:Solving:Spine3
				{
					OFFSET 0.000000 -9.596935 0.000000
					CHANNELS 6 Xposition Yposition Zposition Xrotation Yrotation Zrotation
					JOINT Junyuan_V1:Solving:Neck
					{
						OFFSET 0.000000 -12.338917 -1.233889
						CHANNELS 6 Xposition Yposition Zposition Xrotation Yrotation Zrotation
						JOINT Junyuan_V1:Solving:Neck1
						{
							OFFSET 0.000000 -7.011459 -0.613421
							CHANNELS 6 Xposition Yposition Zposition Xrotation Yrotation Zrotation
							JOINT Junyuan_V1:Solving:Head
							{
								OFFSET 0.000000 -6.931316 -1.222178
								CHANNELS 6 Xposition Yposition Zposition Xrotation Yrotation Zrotation
								JOINT Junyuan_V1:Solving:HeadEnd
								{
									OFFSET 0.000000 -9.728081 0.000002
									CHANNELS 6 Xposition Yposition Zposition Xrotation Yrotation Zrotation
									End Site
									{
										OFFSET 0.000000 -9.728081 0.000002
									}
								}
							}
						}
					}
					JOINT Junyuan_V1:Solving:RightShoulder
					{
						OFFSET 0.000000 -8.813511 -5.370063
						CHANNELS 6 Xposition Yposition Zposition Xrotation Yrotation Zrotation
						JOINT Junyuan_V1:Solving:RightArm
						{
							OFFSET -18.258251 -0.000008 0.000000
							CHANNELS 6 Xposition Yposition Zposition Xrotation Yrotation Zrotation
							JOINT Junyuan_V1:Solving:RightForeArm
							{
								OFFSET -29.201408 -0.000008 0.000000
								CHANNELS 6 Xposition Yposition Zposition Xrotation Yrotation Zrotation
								JOINT Junyuan_V1:Solving:RightHand
								{
									OFFSET -21.396938 -0.000008 0.000000
									CHANNELS 6 Xposition Yposition Zposition Xrotation Yrotation Zrotation
									JOINT Junyuan_V1:Solving:RightHandThumb1
									{
										OFFSET -3.324738 2.789463 -2.472237
										CHANNELS 6 Xposition Yposition Zposition Xrotation Yrotation Zrotation
										End Site
										{
											OFFSET -4.877937 0.000000 -4.923042
										}
									}
									JOINT Junyuan_V1:Solving:RightHandMiddle1
									{
										OFFSET -8.865959 -0.000004 0.056833
										CHANNELS 6 Xposition Yposition Zposition Xrotation Yrotation Zrotation
										End Site
										{
											OFFSET -6.930412 -0.000004 0.000000
										}
									}
								}
							}
						}
					}
					JOINT Junyuan_V1:Solving:LeftShoulder
					{
						OFFSET 0.000000 -8.813511 -5.370063
						CHANNELS 6 Xposition Yposition Zposition Xrotation Yrotation Zrotation
						JOINT Junyuan_V1:Solving:LeftArm
						{
							OFFSET 18.258251 -0.000008 0.000000
							CHANNELS 6 Xposition Yposition Zposition Xrotation Yrotation Zrotation
							JOINT Junyuan_V1:Solving:LeftForeArm
							{
								OFFSET 29.201408 -0.000008 0.000000
								CHANNELS 6 Xposition Yposition Zposition Xrotation Yrotation Zrotation
								JOINT Junyuan_V1:Solving:LeftHand
								{
									OFFSET 21.396938 -0.000008 0.000000
									CHANNELS 6 Xposition Yposition Zposition Xrotation Yrotation Zrotation
									JOINT Junyuan_V1:Solving:LeftHandThumb1
									{
										OFFSET 3.324738 2.789463 -2.472237
										CHANNELS 6 Xposition Yposition Zposition Xrotation Yrotation Zrotation
										End Site
										{
											OFFSET 4.877937 0.000000 -4.923042
										}
									}
									JOINT Junyuan_V1:Solving:LeftHandMiddle1
									{
										OFFSET 8.865959 -0.000004 0.056833
										CHANNELS 6 Xposition Yposition Zposition Xrotation Yrotation Zrotation
										End Site
										{
											OFFSET 6.930412 -0.000004 0.000000
										}
									}
								}
							}
						}
					}
				}
			}
		}
	}
	JOINT Junyuan_V1:Solving:RightUpLeg
	{
		OFFSET -10.758358 0.000000 0.000000
		CHANNELS 6 Xposition Yposition Zposition Xrotation Yrotation Zrotation
		JOINT Junyuan_V1:Solving:RightLeg
		{
			OFFSET 0.000000 42.048927 -0.000006
			CHANNELS 6 Xposition Yposition Zposition Xrotation Yrotation Zrotation
			JOINT Junyuan_V1:Solving:RightFoot
			{
				OFFSET 0.000000 37.321884 -0.000006
				CHANNELS 6 Xposition Yposition Zposition Xrotation Yrotation Zrotation
				JOINT Junyuan_V1:Solving:RightForeFoot
				{
					OFFSET 0.000000 3.476204 -0.000000
					CHANNELS 6 Xposition Yposition Zposition Xrotation Yrotation Zrotation
					JOINT Junyuan_V1:Solving:RightToeBase
					{
						OFFSET 0.000000 0.000000 -13.613925
						CHANNELS 6 Xposition Yposition Zposition Xrotation Yrotation Zrotation
						JOINT Junyuan_V1:Solving:RightToeBaseEnd
						{
							OFFSET 0.000000 0.000000 -4.229021
							CHANNELS 6 Xposition Yposition Zposition Xrotation Yrotation Zrotation
							End Site
							{
								OFFSET 0.000000 -4.229019 0.000000
							}
						}
					}
				}
			}
		}
	}
	JOINT Junyuan_V1:Solving:LeftUpLeg
	{
		OFFSET 10.758358 0.000000 0.000000
		CHANNELS 6 Xposition Yposition Zposition Xrotation Yrotation Zrotation
		JOINT Junyuan_V1:Solving:LeftLeg
		{
			OFFSET 0.000000 42.048927 -0.000006
			CHANNELS 6 Xposition Yposition Zposition Xrotation Yrotation Zrotation
			JOINT Junyuan_V1:Solving:LeftFoot
			{
				OFFSET 0.000000 37.321884 -0.000006
				CHANNELS 6 Xposition Yposition Zposition Xrotation Yrotation Zrotation
				JOINT Junyuan_V1:Solving:LeftForeFoot
				{
					OFFSET 0.000000 3.476204 -0.000000
					CHANNELS 6 Xposition Yposition Zposition Xrotation Yrotation Zrotation
					JOINT Junyuan_V1:Solving:LeftToeBase
					{
						OFFSET 0.000000 0.000000 -13.613925
						CHANNELS 6 Xposition Yposition Zposition Xrotation Yrotation Zrotation
						JOINT Junyuan_V1:Solving:LeftToeBaseEnd
						{
							OFFSET 0.000000 0.000000 -4.216879
							CHANNELS 6 Xposition Yposition Zposition Xrotation Yrotation Zrotation
							End Site
							{
								OFFSET 0.000000 -4.216881 0.000000
							}
						}
					}
				}
			}
		}
	}
}
MOTION
Frames: 4
Frame Time: 0.041667
-9.691007 -91.113197 -86.903030 -90.158599 -8.468373 -178.536596 -0.000002 -11.384822 2.506334 13.599007 -0.589794 5.540801 -0.000000 -9.451141 1.666487 0.017925 -0.142970 0.996173 -0.000000 -9.560419 0.836433 -1.400624 0.822447 1.105230 -0.000000 -9.596942 0.000003 0.583318 -0.100217 -0.049557 -0.000004 -12.338931 -1.233886 -7.703994 -1.255952 0.305131 -0.000000 -7.011446 -0.613420 2.280289 -6.026421 -0.576809 0.000001 -6.931289 -1.222179 10.260824 -0.344901 -0.284630 0.000002 -9.728081 0.000003 0.000001 0.000000 -0.000000 -0.000003 -8.813522 -5.370077 0.000009 20.410347 7.837879 -18.258242 0.000025 0.000028 -1.317466 -35.383604 -75.296046 -29.201414 -0.000009 0.000015 102.885434 -63.247183 104.369327 -21.396948 -0.000007 0.000013 1.330509 -3.870702 18.985897 -3.324728 2.789445 -2.472212 -0.000001 0.000005 -0.000006 -8.865960 0.000006 0.056857 0.000007 -0.000001 -0.000001 -0.000003 -8.813522 -5.370077 -179.999964 29.583113 3.530252 18.258249 -0.000031 0.000029 -191.797722 73.926286 66.031714 29.201422 -0.000022 0.000011 -5.828746 48.854861 4.395872 21.396948 -0.000018 0.000020 4.359678 10.797828 -22.143190 3.324729 2.789456 -2.472243 0.000003 -0.000005 0.000009 8.865953 -0.000004 0.056826 0.000003 -0.000001 0.000003 -10.758359 0.000012 -0.000001 8.571862 -12.991285 1.866961 0.000000 42.048939 0.000006 8.913012 -0.000000 0.000001 0.000001 37.321865 0.000000 -5.142064 7.370964 5.119857 0.000000 3.476204 -0.000005 -0.000000 -0.000000 0.000000 0.000000 -0.000002 -13.613932 6.111256 -0.000002 -0.000000 0.000000 -0.000000 -4.228988 -0.000001 -0.000001 -0.000002 10.758355 0.000007 -0.000002 -16.678466 -6.642762 -1.802592 -0.000005 42.048939 -0.000024 17.446417 -0.000000 0.000001 -0.000002 37.321888 0.000014 3.451104 -18.610922 -0.324726 0.000001 3.476204 -0.000014 0.000000 -0.000003 0.000000 0.000006 -0.000004 -13.613953 9.690952 -0.000004 0.000000 -0.000003 -0.000016 -4.216864 -0.000003 0.000001 -0.000000 
-9.765978 -91.155571 -86.899025 -90.245691 -8.748513 -178.563930 0.000005 -11.384837 2.506339 13.622616 -0.569056 5.619388 -0.000002 -9.451123 1.666474 0.034199 -0.144407 1.006152 0.000001 -9.560427 0.836428 -1.387495 0.860322 1.121002 0.000000 -9.596937 0.000007 0.567776 -0.079519 -0.065923 -0.000003 -12.338910 -1.233898 -7.719433 -1.289346 0.263123 -0.000002 -7.011480 -0.613389 2.266033 -6.142513 -0.575490 -0.000006 -6.931353 -1.222188 10.234800 -0.353662 -0.275943 -0.000005 -9.728111 -0.000003 0.000001 -0.000000 -0.000001 -0.000002 -8.813488 -5.370055 0.000002 20.446764 7.944027 -18.258251 0.000017 0.000007 -2.206209 -35.065436 -75.534440 -29.201439 0.000007 0.000014 105.276936 -63.390221 106.987632 -21.396942 0.000008 0.000007 1.241852 -3.660239 18.755083 -3.324713 2.789440 -2.472231 -0.000002 0.000003 -0.000007 -8.865939 -0.000006 0.056834 -0.000004 -0.000000 -0.000003 -0.000000 -8.813484 -5.370055 -179.999978 29.497149 3.517420 18.258247 0.000005 0.000012 -191.854905 74.189781 65.970591 29.201408 0.000009 0.000001 -5.896862 48.911282 4.451202 21.396936 -0.000032 -0.000011 4.430015 10.828145 -22.410447 3.324735 2.789456 -2.472252 0.000003 -0.000010 -0.000004 8.865959 -0.000005 0.056827 -0.000001 -0.000002 0.000000 -10.758353 0.000008 0.000000 8.477206 -13.107222 1.992310 0.000000 42.048950 -0.000005 8.927432 0.000001 -0.000000 0.000000 37.321896 0.000021 -5.154852 7.261189 5.017076 0.000000 3.476204 0.000007 -0.000000 -0.000000 -0.000000 0.000001 -0.000008 -13.613917 6.127861 -0.000002 -0.000001 -0.000001 0.000009 -4.229009 0.000003 -0.000000 -0.000001 10.758361 0.000007 0.000008 -16.746391 -6.857767 -1.801816 0.000003 42.048916 -0.000018 17.518865 -0.000000 0.000001 -0.000002 37.321873 -0.000021 3.325889 -18.685707 -0.345502 0.000002 3.476196 -0.000003 0.000000 0.000002 -0.000000 0.000002 0.000001 -13.613933 9.750912 -0.000000 0.000000 0.000003 -0.000015 -4.216875 0.000000 0.000001 -0.000000 
-9.837126 -91.194481 -86.892479 -90.345289 -9.017175 -178.588656 -0.000003 -11.384862 2.506340 13.633821 -0.553524 5.692946 -0.000000 -9.451126 1.666498 0.049112 -0.145218 1.013999 0.000003 -9.560424 0.836430 -1.386063 0.908099 1.140515 -0.000000 -9.596920 0.000011 0.555449 -0.057743 -0.076783 0.000001 -12.338898 -1.233898 -7.706508 -1.319381 0.232160 0.000003 -7.011482 -0.613436 2.246926 -6.272546 -0.586315 -0.000001 -6.931334 -1.222186 10.195569 -0.361983 -0.281357 0.000004 -9.728065 0.000002 0.000004 0.000000 -0.000000 -0.000003 -8.813507 -5.370062 0.000005 20.438467 8.004869 -18.258244 -0.000041 -0.000001 -3.118632 -34.613678 -75.803290 -29.201393 -0.000004 0.000007 107.784599 -63.540014 109.712666 -21.396929 -0.000022 -0.000001 1.165415 -3.506356 18.397603 -3.324726 2.789450 -2.472250 -0.000000 0.000005 -0.000004 -8.865943 -0.000000 0.056832 0.000005 0.000000 0.000001 -0.000004 -8.813526 -5.370061 -179.999964 29.373891 3.527461 18.258245 0.000017 0.000009 -192.094849 74.375289 66.103302 29.201405 -0.000015 0.000016 -5.774595 48.982613 4.363345 21.396950 -0.000008 0.000003 4.343254 10.874694 -21.928020 3.324709 2.789482 -2.472228 -0.000003 0.000005 0.000003 8.865965 0.000005 0.056836 0.000001 0.000002 -0.000003 -10.758360 -0.000011 0.000003 8.372740 -13.228393 2.108192 0.000002 42.048935 0.000018 8.937455 0.000001 0.000000 0.000002 37.321884 -0.000014 -5.180737 7.158832 4.907584 0.000001 3.476204 0.000000 -0.000000 0.000000 0.000000 0.000000 -0.000013 -13.613925 6.142274 -0.000001 -0.000002 -0.000001 0.000009 -4.229005 0.000004 -0.000000 -0.000001 10.758353 -0.000001 0.000013 -16.832583 -7.066154 -1.808607 0.000006 42.048927 -0.000031 17.597264 0.000000 0.000001 0.000001 37.321880 0.000008 3.197846 -18.732026 -0.381626 0.000004 3.476196 -0.000025 -0.000000 0.000001 0.000000 -0.000003 0.000020 -13.613939 9.769271 -0.000005 0.000001 -0.000006 -0.000001 -4.216870 -0.000002 0.000002 -0.000001 
-9.910102 -91.230659 -86.888214 -90.441219 -9.275680 -178.613722 -0.000000 -11.384823 2.506335 13.650528 -0.539614 5.757973 -0.000001 -9.451150 1.666479 0.057621 -0.146369 1.022597 -0.000000 -9.560443 0.836438 -1.367927 0.952823 1.156364 -0.000001 -9.596916 0.000006 0.559285 -0.042778 -0.073242 0.000001 -12.338897 -1.233877 -7.737558 -1.337121 0.194102 -0.000006 -7.011474 -0.613415 2.232572 -6.397110 -0.594814 -0.000003 -6.931333 -1.222160 10.162788 -0.369620 -0.284125 0.000002 -9.728073 -0.000000 0.000004 0.000000 0.000000 0.000009 -8.813469 -5.370060 0.000002 20.452255 8.085522 -18.258245 0.000022 0.000005 -4.072201 -34.188433 -76.065454 -29.201424 -0.000016 0.000001 110.394428 -63.729763 112.519225 -21.396940 -0.000001 0.000011 1.104604 -3.395248 18.033023 -3.324756 2.789439 -2.472252 0.000003 0.000003 -0.000003 -8.865967 0.000001 0.056832 0.000002 0.000000 -0.000000 0.000009 -8.813477 -5.370060 -180.000019 29.259981 3.545012 18.258253 0.000034 -0.000009 -192.365379 74.593295 66.251646 29.201416 -0.000002 0.000022 -5.235469 49.028136 3.957663 21.396933 0.000001 0.000012 4.290931 10.653605 -22.089921 3.324719 2.789467 -2.472204 0.000003 -0.000005 0.000005 8.865963 0.000015 0.056858 0.000004 -0.000003 -0.000004 -10.758358 0.000015 0.000001 8.266277 -13.310752 2.225122 0.000000 42.048916 -0.000007 8.952361 0.000000 0.000001 0.000002 37.321903 0.000001 -5.189794 7.015553 4.799570 -0.000000 3.476196 0.000001 -0.000001 -0.000000 -0.000000 0.000000 -0.000006 -13.613921 6.184647 -0.000001 0.000000 -0.000000 -0.000007 -4.229029 0.000002 0.000001 -0.000000 10.758357 0.000034 0.000008 -16.913823 -7.269351 -1.812315 0.000002 42.048923 -0.000005 17.665849 0.000000 0.000001 -0.000001 37.321899 -0.000019 3.084646 -18.775253 -0.423138 0.000004 3.476204 0.000001 -0.000000 0.000003 -0.000000 0.000004 0.000013 -13.613940 9.785338 -0.000007 -0.000000 0.000003 -0.000008 -4.216862 -0.000001 0.000001 -0.000000 
